{"accessors":[{"bufferView":0,"componentType":5125,"count":96,"max":[51.0],"min":[0.0],"type":"SCALAR"},{"bufferView":1,"componentType":5126,"count":52,"max":[-36.13080978393555,13.123359680175782,-19.67978858947754],"min":[-38.13212203979492,0.0,-21.238187789916993],"type":"VEC3"},{"bufferView":2,"componentType":5126,"count":52,"max":[0.9999996423721314,1.0,0.9999998807907105],"min":[-0.9999999403953552,-1.0,-0.9999998807907105],"type":"VEC3"},{"bufferView":3,"componentType":5126,"count":52,"max":[1.0,1.0],"min":[0.0,0.0],"type":"VEC2"},{"bufferView":4,"componentType":5125,"count":48,"max":[20.0],"min":[0.0],"type":"SCALAR"},{"bufferView":5,"componentType":5126,"count":21,"max":[-36.796302795410159,13.123359680175782,-19.67978858947754],"min":[-37.45954895019531,-5.418129016594497e-24,-21.238187789916993],"type":"VEC3"},{"bufferView":6,"componentType":5126,"count":21,"max":[0.9999996423721314,-0.00038377841701731086,0.01841050758957863],"min":[-0.9999999403953552,-0.00038377841701731086,-0.018411222845315934],"type":"VEC3"},{"bufferView":7,"componentType":5126,"count":21,"max":[1.0,1.0],"min":[0.0,0.0],"type":"VEC2"},{"bufferView":8,"componentType":5125,"count":72,"max":[43.0],"min":[0.0],"type":"SCALAR"},{"bufferView":9,"componentType":5126,"count":44,"max":[7.1012983322143559,13.123359680175782,-62.911895751953128],"min":[5.0999860763549809,0.0,-64.47029113769531],"type":"VEC3"},{"bufferView":10,"componentType":5126,"count":44,"max":[0.9999996423721314,1.0,0.9999998807907105],"min":[-0.9999999403953552,-1.0,-0.9999998807907105],"type":"VEC3"},{"bufferView":11,"componentType":5126,"count":44,"max":[1.0,1.0],"min":[0.0,0.0],"type":"VEC2"},{"bufferView":12,"componentType":5125,"count":24,"max":[11.0],"min":[0.0],"type":"SCALAR"},{"bufferView":13,"componentType":5126,"count":12,"max":[7.1012983322143559,13.123359680175782,-63.351341247558597],"min":[5.0999860763549809,0.0,-64.01918029785156],"type":"VEC3"},{"bufferView":14,"componentType":5126,"count":12,"max":[0.0233969334512949,-0.00038377841701731086,0.9999998807907105],"min":[-0.0226301122456789,-0.00038377841701731086,-0.9999998807907105],"type":"VEC3"},{"bufferView":15,"componentType":5126,"count":12,"max":[1.0,1.0],"min":[0.0,0.0],"type":"VEC2"},{"bufferView":16,"componentType":5125,"count":96,"max":[51.0],"min":[0.0],"type":"SCALAR"},{"bufferView":17,"componentType":5126,"count":52,"max":[50.333404541015628,13.123359680175782,-19.67978858947754],"min":[48.33209228515625,-1.7763568394002506e-15,-21.238187789916993],"type":"VEC3"},{"bufferView":18,"componentType":5126,"count":52,"max":[0.9999996423721314,1.0,0.9999998807907105],"min":[-0.9999999403953552,-1.0,-0.9999998807907105],"type":"VEC3"},{"bufferView":19,"componentType":5126,"count":52,"max":[1.0,1.0],"min":[0.0,0.0],"type":"VEC2"},{"bufferView":20,"componentType":5125,"count":48,"max":[23.0],"min":[0.0],"type":"SCALAR"},{"bufferView":21,"componentType":5126,"count":24,"max":[49.660831451416019,13.123359680175782,-19.67978858947754],"min":[48.997589111328128,-1.7763568394002506e-15,-21.238187789916993],"type":"VEC3"},{"bufferView":22,"componentType":5126,"count":24,"max":[0.9999996423721314,-0.00038377841701731086,0.01841050758957863],"min":[-0.9999999403953552,-0.00038377841701731086,-0.018411222845315934],"type":"VEC3"},{"bufferView":23,"componentType":5126,"count":24,"max":[1.0,1.0],"min":[5.551115123125783e-17,0.0],"type":"VEC2"},{"bufferView":24,"componentType":5125,"count":72,"max":[43.0],"min":[0.0],"type":"SCALAR"},{"bufferView":25,"componentType":5126,"count":44,"max":[7.1012983322143559,13.123359680175782,23.552318572998048],"min":[5.0999860763549809,0.0,21.993919372558595],"type":"VEC3"},{"bufferView":26,"componentType":5126,"count":44,"max":[0.9999996423721314,1.0,0.9999998807907105],"min":[-0.9999999403953552,-1.0,-0.9999998807907105],"type":"VEC3"},{"bufferView":27,"componentType":5126,"count":44,"max":[1.0,1.0],"min":[0.0,0.0],"type":"VEC2"},{"bufferView":28,"componentType":5125,"count":24,"max":[11.0],"min":[0.0],"type":"SCALAR"},{"bufferView":29,"componentType":5126,"count":12,"max":[7.1012983322143559,13.123359680175782,23.1012020111084],"min":[5.0999860763549809,-1.0836258033188994e-23,22.43336296081543],"type":"VEC3"},{"bufferView":30,"componentType":5126,"count":12,"max":[0.0233969334512949,-0.00038377841701731086,0.9999998807907105],"min":[-0.0226301122456789,-0.00038377841701731086,-0.9999998807907105],"type":"VEC3"},{"bufferView":31,"componentType":5126,"count":12,"max":[1.0,1.0],"min":[0.0,0.0],"type":"VEC2"},{"bufferView":32,"componentType":5125,"count":912,"max":[319.0],"min":[0.0],"type":"SCALAR"},{"bufferView":33,"componentType":5126,"count":320,"max":[49.33274841308594,2.722541999647723e-23,22.76788902282715],"min":[-37.131465911865237,-1.1876640319824219,-63.68586730957031],"type":"VEC3"},{"bufferView":34,"componentType":5126,"count":320,"max":[1.0,0.003921627998352051,1.0],"min":[-1.0,-1.0,-1.0],"type":"VEC3"},{"bufferView":35,"componentType":5126,"count":320,"max":[1.0,1.0],"min":[0.0,0.0],"type":"VEC2"},{"bufferView":36,"componentType":5125,"count":300,"max":[101.0],"min":[0.0],"type":"SCALAR"},{"bufferView":37,"componentType":5126,"count":102,"max":[49.33274841308594,0.0,22.76788902282715],"min":[-37.131465911865237,0.0,-63.68586730957031],"type":"VEC3"},{"bufferView":38,"componentType":5126,"count":102,"max":[0.003921627998352051,1.0,0.003921627998352051],"min":[0.003921627998352051,1.0,0.003921627998352051],"type":"VEC3"},{"bufferView":39,"componentType":5126,"count":102,"max":[1.0,1.0],"min":[0.0,0.0],"type":"VEC2"},{"bufferView":40,"componentType":5125,"count":1905,"max":[658.0],"min":[0.0],"type":"SCALAR"},{"bufferView":41,"componentType":5126,"count":659,"max":[49.660831451416019,26.246719360351564,-20.458988189697267],"min":[-37.45954895019531,-1.0023538660978296e-22,-64.01918029785156],"type":"VEC3"},{"bufferView":42,"componentType":5126,"count":659,"max":[1.0,1.0,1.0],"min":[-1.0,-1.0,-1.0],"type":"VEC3"},{"bufferView":43,"componentType":5126,"count":659,"max":[1.0,1.0],"min":[0.0,0.0],"type":"VEC2"},{"bufferView":44,"componentType":5125,"count":1902,"max":[657.0],"min":[0.0],"type":"SCALAR"},{"bufferView":45,"componentType":5126,"count":658,"max":[49.660831451416019,26.246719360351564,23.1012020111084],"min":[-37.45954895019531,-8.669006426551195e-23,-20.458988189697267],"type":"VEC3"},{"bufferView":46,"componentType":5126,"count":658,"max":[1.0,1.0,1.0],"min":[-1.0,-1.0,-1.0],"type":"VEC3"},{"bufferView":47,"componentType":5126,"count":658,"max":[1.0,1.0],"min":[0.0,0.0],"type":"VEC2"},{"bufferView":48,"componentType":5125,"count":36,"max":[15.0],"min":[0.0],"type":"SCALAR"},{"bufferView":49,"componentType":5126,"count":16,"max":[0.02624671906232834,0.0,0.01312335953116417],"min":[-2.0816681711721686e-17,0.0,-0.01312335953116417],"type":"VEC3"},{"bufferView":50,"componentType":5126,"count":16,"max":[0.0,1.0,0.0],"min":[0.0,1.0,0.0],"type":"VEC3"},{"bufferView":51,"componentType":5126,"count":16,"max":[1.0,1.0],"min":[5.551115123125783e-17,0.0],"type":"VEC2"},{"bufferView":52,"componentType":5125,"count":36,"max":[15.0],"min":[0.0],"type":"SCALAR"},{"bufferView":53,"componentType":5126,"count":16,"max":[0.02624671906232834,0.0,0.01312335953116417],"min":[-2.0816681711721686e-17,0.0,-0.01312335953116417],"type":"VEC3"},{"bufferView":54,"componentType":5126,"count":16,"max":[0.0,1.0,0.0],"min":[0.0,1.0,0.0],"type":"VEC3"},{"bufferView":55,"componentType":5126,"count":16,"max":[1.0,1.0],"min":[5.551115123125783e-17,0.0],"type":"VEC2"}],"asset":{"generator":"SimLab GLTF","version":"2.0"},"bufferViews":[{"buffer":0,"byteLength":384,"target":34963},{"buffer":0,"byteLength":624,"byteOffset":384,"byteStride":12,"target":34962},{"buffer":0,"byteLength":624,"byteOffset":1008,"byteStride":12,"target":34962},{"buffer":0,"byteLength":416,"byteOffset":1632,"byteStride":8,"target":34962},{"buffer":0,"byteLength":192,"byteOffset":2048,"target":34963},{"buffer":0,"byteLength":252,"byteOffset":2240,"byteStride":12,"target":34962},{"buffer":0,"byteLength":252,"byteOffset":2492,"byteStride":12,"target":34962},{"buffer":0,"byteLength":168,"byteOffset":2744,"byteStride":8,"target":34962},{"buffer":0,"byteLength":288,"byteOffset":2912,"target":34963},{"buffer":0,"byteLength":528,"byteOffset":3200,"byteStride":12,"target":34962},{"buffer":0,"byteLength":528,"byteOffset":3728,"byteStride":12,"target":34962},{"buffer":0,"byteLength":352,"byteOffset":4256,"byteStride":8,"target":34962},{"buffer":0,"byteLength":96,"byteOffset":4608,"target":34963},{"buffer":0,"byteLength":144,"byteOffset":4704,"byteStride":12,"target":34962},{"buffer":0,"byteLength":144,"byteOffset":4848,"byteStride":12,"target":34962},{"buffer":0,"byteLength":96,"byteOffset":4992,"byteStride":8,"target":34962},{"buffer":0,"byteLength":384,"byteOffset":5088,"target":34963},{"buffer":0,"byteLength":624,"byteOffset":5472,"byteStride":12,"target":34962},{"buffer":0,"byteLength":624,"byteOffset":6096,"byteStride":12,"target":34962},{"buffer":0,"byteLength":416,"byteOffset":6720,"byteStride":8,"target":34962},{"buffer":0,"byteLength":192,"byteOffset":7136,"target":34963},{"buffer":0,"byteLength":288,"byteOffset":7328,"byteStride":12,"target":34962},{"buffer":0,"byteLength":288,"byteOffset":7616,"byteStride":12,"target":34962},{"buffer":0,"byteLength":192,"byteOffset":7904,"byteStride":8,"target":34962},{"buffer":0,"byteLength":288,"byteOffset":8096,"target":34963},{"buffer":0,"byteLength":528,"byteOffset":8384,"byteStride":12,"target":34962},{"buffer":0,"byteLength":528,"byteOffset":8912,"byteStride":12,"target":34962},{"buffer":0,"byteLength":352,"byteOffset":9440,"byteStride":8,"target":34962},{"buffer":0,"byteLength":96,"byteOffset":9792,"target":34963},{"buffer":0,"byteLength":144,"byteOffset":9888,"byteStride":12,"target":34962},{"buffer":0,"byteLength":144,"byteOffset":10032,"byteStride":12,"target":34962},{"buffer":0,"byteLength":96,"byteOffset":10176,"byteStride":8,"target":34962},{"buffer":0,"byteLength":3648,"byteOffset":10272,"target":34963},{"buffer":0,"byteLength":3840,"byteOffset":13920,"byteStride":12,"target":34962},{"buffer":0,"byteLength":3840,"byteOffset":17760,"byteStride":12,"target":34962},{"buffer":0,"byteLength":2560,"byteOffset":21600,"byteStride":8,"target":34962},{"buffer":0,"byteLength":1200,"byteOffset":24160,"target":34963},{"buffer":0,"byteLength":1224,"byteOffset":25360,"byteStride":12,"target":34962},{"buffer":0,"byteLength":1224,"byteOffset":26584,"byteStride":12,"target":34962},{"buffer":0,"byteLength":816,"byteOffset":27808,"byteStride":8,"target":34962},{"buffer":0,"byteLength":7620,"byteOffset":28624,"target":34963},{"buffer":0,"byteLength":7908,"byteOffset":36244,"byteStride":12,"target":34962},{"buffer":0,"byteLength":7908,"byteOffset":44152,"byteStride":12,"target":34962},{"buffer":0,"byteLength":5272,"byteOffset":52060,"byteStride":8,"target":34962},{"buffer":0,"byteLength":7608,"byteOffset":57332,"target":34963},{"buffer":0,"byteLength":7896,"byteOffset":64940,"byteStride":12,"target":34962},{"buffer":0,"byteLength":7896,"byteOffset":72836,"byteStride":12,"target":34962},{"buffer":0,"byteLength":5264,"byteOffset":80732,"byteStride":8,"target":34962},{"buffer":0,"byteLength":144,"byteOffset":85996,"target":34963},{"buffer":0,"byteLength":192,"byteOffset":86140,"byteStride":12,"target":34962},{"buffer":0,"byteLength":192,"byteOffset":86332,"byteStride":12,"target":34962},{"buffer":0,"byteLength":128,"byteOffset":86524,"byteStride":8,"target":34962},{"buffer":0,"byteLength":144,"byteOffset":86652,"target":34963},{"buffer":0,"byteLength":192,"byteOffset":86796,"byteStride":12,"target":34962},{"buffer":0,"byteLength":192,"byteOffset":86988,"byteStride":12,"target":34962},{"buffer":0,"byteLength":128,"byteOffset":87180,"byteStride":8,"target":34962}],"buffers":[{"byteLength":87308,"uri":"6667.bin"}],"materials":[{"name":"R48,G135,B227","alphaMode":"MASK","doubleSided":true,"pbrMetallicRoughness":{"baseColorFactor":[0.1882353127002716,0.529411792755127,0.8901961445808411,1.0],"metallicFactor":0.0}},{"name":"R127,G127,B127","alphaMode":"MASK","doubleSided":true,"pbrMetallicRoughness":{"baseColorFactor":[0.49803924560546877,0.49803924560546877,0.49803924560546877,1.0],"metallicFactor":0.0}},{"name":"R165,G42,B42","alphaMode":"MASK","doubleSided":true,"pbrMetallicRoughness":{"baseColorFactor":[0.6470588445663452,0.16470588743686677,0.16470588743686677,1.0],"metallicFactor":0.0}},{"name":"R192,G192,B192","alphaMode":"MASK","doubleSided":true,"pbrMetallicRoughness":{"baseColorFactor":[0.7529412508010864,0.7529412508010864,0.7529412508010864,1.0],"metallicFactor":0.0}},{"name":"R128,G255,B0","alphaMode":"MASK","doubleSided":true,"pbrMetallicRoughness":{"baseColorFactor":[0.501960813999176,1.0,0.0,1.0],"metallicFactor":0.0}},{"name":"R128,G128,B255","alphaCutoff":0.3999999761581421,"alphaMode":"BLEND","doubleSided":true,"pbrMetallicRoughness":{"baseColorFactor":[0.501960813999176,0.501960813999176,1.0,0.3999999761581421],"metallicFactor":0.0}},{"name":"R0,G0,B0","alphaMode":"MASK","doubleSided":true,"pbrMetallicRoughness":{"baseColorFactor":[0.0,0.0,0.0,1.0],"metallicFactor":0.0}},{"name":"R0,G59,B189","alphaMode":"MASK","doubleSided":true,"pbrMetallicRoughness":{"baseColorFactor":[0.0,0.23137256503105164,0.7411764860153198,1.0],"metallicFactor":0.0}}],"meshes":[{"primitives":[{"attributes":{"NORMAL":2,"POSITION":1,"TEXCOORD_0":3},"indices":0,"material":0,"mode":4}]},{"primitives":[{"attributes":{"NORMAL":6,"POSITION":5,"TEXCOORD_0":7},"indices":4,"material":1,"mode":4}]},{"primitives":[{"attributes":{"NORMAL":10,"POSITION":9,"TEXCOORD_0":11},"indices":8,"material":0,"mode":4}]},{"primitives":[{"attributes":{"NORMAL":14,"POSITION":13,"TEXCOORD_0":15},"indices":12,"material":1,"mode":4}]},{"primitives":[{"attributes":{"NORMAL":18,"POSITION":17,"TEXCOORD_0":19},"indices":16,"material":0,"mode":4}]},{"primitives":[{"attributes":{"NORMAL":22,"POSITION":21,"TEXCOORD_0":23},"indices":20,"material":1,"mode":4}]},{"primitives":[{"attributes":{"NORMAL":26,"POSITION":25,"TEXCOORD_0":27},"indices":24,"material":0,"mode":4}]},{"primitives":[{"attributes":{"NORMAL":30,"POSITION":29,"TEXCOORD_0":31},"indices":28,"material":1,"mode":4}]},{"primitives":[{"attributes":{"NORMAL":34,"POSITION":33,"TEXCOORD_0":35},"indices":32,"material":2,"mode":4}]},{"primitives":[{"attributes":{"NORMAL":38,"POSITION":37,"TEXCOORD_0":39},"indices":36,"material":3,"mode":4}]},{"primitives":[{"attributes":{"NORMAL":42,"POSITION":41,"TEXCOORD_0":43},"indices":40,"material":4,"mode":4}]},{"primitives":[{"attributes":{"NORMAL":46,"POSITION":45,"TEXCOORD_0":47},"indices":44,"material":5,"mode":4}]},{"primitives":[{"attributes":{"NORMAL":50,"POSITION":49,"TEXCOORD_0":51},"indices":48,"material":6,"mode":4}]},{"primitives":[{"attributes":{"NORMAL":54,"POSITION":53,"TEXCOORD_0":55},"indices":52,"material":7,"mode":4}]},{"primitives":[{"attributes":{"NORMAL":54,"POSITION":53,"TEXCOORD_0":55},"indices":52,"material":7,"mode":4}]},{"primitives":[{"attributes":{"NORMAL":54,"POSITION":53,"TEXCOORD_0":55},"indices":52,"material":7,"mode":4}]},{"primitives":[{"attributes":{"NORMAL":54,"POSITION":53,"TEXCOORD_0":55},"indices":52,"material":7,"mode":4}]},{"primitives":[{"attributes":{"NORMAL":54,"POSITION":53,"TEXCOORD_0":55},"indices":52,"material":7,"mode":4}]}],"nodes":[{"children":[1,2],"matrix":[1.0,0.0,0.0,0.0,0.0,4.4896593387466768e-11,-1.0,0.0,0.0,1.0,4.4896593387466768e-11,0.0,0.0,0.0,0.0,1.0]},{"name":"Camera-13","rotation":[-0.7071067690849304,0.0,0.0,-0.7071067690849304],"translation":[-0.07369434088468552,-129.10391235351563,1.5]},{"name":"Assembly-114","children":[3],"rotation":[0.0,0.0,0.0,-1.0],"scale":[0.0010000000474974514,0.0010000000474974514,0.0010000000474974514]},{"children":[4,45,54,67],"rotation":[-0.7071067690849304,0.0,0.0,-0.7071067690849304],"scale":[304.79998779296877,304.79998779296877,304.79998779296877]},{"name":"Колонны (4)","children":[5,15,25,35],"rotation":[0.0,0.0,0.0,-1.0]},{"name":"Колонна прямоугольного сечения [237209]","children":[6],"rotation":[0.0,0.0,0.0,-1.0]},{"name":"SubPart 1","children":[7,10,13,14],"rotation":[0.0,0.0,0.0,-1.0]},{"children":[9],"rotation":[0.0,0.0,0.0,-1.0]},{"mesh":0},{"children":[8]},{"children":[12],"rotation":[0.0,0.0,0.0,-1.0]},{"mesh":1},{"children":[11]},{"rotation":[0.0,0.0,0.0,-1.0]},{"rotation":[0.0,0.0,0.0,-1.0]},{"name":"Колонна прямоугольного сечения [237217]","children":[16],"rotation":[0.0,0.0,0.0,-1.0]},{"name":"SubPart 1","children":[17,20,23,24],"rotation":[0.0,0.0,0.0,-1.0]},{"children":[19],"rotation":[0.0,0.0,0.0,-1.0]},{"mesh":2},{"children":[18]},{"children":[22],"rotation":[0.0,0.0,0.0,-1.0]},{"mesh":3},{"children":[21]},{"rotation":[0.0,0.0,0.0,-1.0]},{"rotation":[0.0,0.0,0.0,-1.0]},{"name":"Колонна прямоугольного сечения [237228]","children":[26],"rotation":[0.0,0.0,0.0,-1.0]},{"name":"SubPart 1","children":[27,30,33,34],"rotation":[0.0,0.0,0.0,-1.0]},{"children":[29],"rotation":[0.0,0.0,0.0,-1.0]},{"mesh":4},{"children":[28]},{"children":[32],"rotation":[0.0,0.0,0.0,-1.0]},{"mesh":5},{"children":[31]},{"rotation":[0.0,0.0,0.0,-1.0]},{"rotation":[0.0,0.0,0.0,-1.0]},{"name":"Колонна прямоугольного сечения [237235]","children":[36],"rotation":[0.0,0.0,0.0,-1.0]},{"name":"SubPart 1","children":[37,40,43,44],"rotation":[0.0,0.0,0.0,-1.0]},{"children":[39],"rotation":[0.0,0.0,0.0,-1.0]},{"mesh":6},{"children":[38]},{"children":[42],"rotation":[0.0,0.0,0.0,-1.0]},{"mesh":7},{"children":[41]},{"rotation":[0.0,0.0,0.0,-1.0]},{"rotation":[0.0,0.0,0.0,-1.0]},{"name":"Перекрытия (1)","children":[46],"rotation":[0.0,0.0,0.0,-1.0]},{"name":"Перекрытие [237140]","children":[47,50,53],"rotation":[0.0,0.0,0.0,-1.0]},{"children":[49],"rotation":[0.0,0.0,0.0,-1.0]},{"mesh":8},{"children":[48]},{"children":[52],"rotation":[0.0,0.0,0.0,-1.0]},{"mesh":9},{"children":[51]},{"rotation":[0.0,0.0,0.0,-1.0]},{"name":"Стены (2)","children":[55,61],"rotation":[0.0,0.0,0.0,-1.0]},{"name":"Базовая стена [237198]","children":[56,59,60],"rotation":[0.0,0.0,0.0,-1.0]},{"children":[58],"rotation":[0.0,0.0,0.0,-1.0]},{"mesh":10},{"children":[57]},{"rotation":[0.0,0.0,0.0,-1.0]},{"rotation":[0.0,0.0,0.0,-1.0]},{"name":"Базовая стена [237203]","children":[62,65,66],"rotation":[0.0,0.0,0.0,-1.0]},{"children":[64],"rotation":[0.0,0.0,0.0,-1.0]},{"mesh":11},{"children":[63]},{"rotation":[0.0,0.0,0.0,-1.0]},{"rotation":[0.0,0.0,0.0,-1.0]},{"name":"Уровни (12)","children":[68,79,90,101,112,123],"rotation":[0.0,0.0,0.0,-1.0]},{"name":"Основание B.O. (2)","children":[69,77],"rotation":[0.0,0.0,0.0,-1.0]},{"name":"Уровень [5943]","children":[70],"rotation":[-0.5,0.5,-0.5,-0.5],"scale":[100.0,100.0,100.0],"translation":[-50.81696319580078,-15.091863632202149,41.35826873779297]},{"children":[71,74,75,76],"rotation":[0.0,0.0,0.0,-1.0]},{"children":[73],"rotation":[0.0,0.0,0.0,-1.0]},{"mesh":12},{"children":[72]},{"rotation":[0.0,0.0,0.0,-1.0]},{"rotation":[0.0,0.0,0.0,-1.0]},{"rotation":[0.0,0.0,0.0,-1.0]},{"name":"Уровень [5943]","children":[78],"rotation":[0.0,0.0,0.0,-1.0]},{"rotation":[0.0,0.0,0.0,-1.0]},{"name":"Основание T.O. (2)","children":[80,88],"rotation":[0.0,0.0,0.0,-1.0]},{"name":"Уровень [5913]","children":[81],"rotation":[-0.5,0.5,-0.5,-0.5],"scale":[100.0,100.0,100.0],"translation":[-50.81696319580078,-14.107611656188965,41.35826873779297]},{"children":[82,85,86,87],"rotation":[0.0,0.0,0.0,-1.0]},{"children":[84],"rotation":[0.0,0.0,0.0,-1.0]},{"mesh":13},{"children":[83]},{"rotation":[0.0,0.0,0.0,-1.0]},{"rotation":[0.0,0.0,0.0,-1.0]},{"rotation":[0.0,0.0,0.0,-1.0]},{"name":"Уровень [5913]","children":[89],"rotation":[0.0,0.0,0.0,-1.0]},{"rotation":[0.0,0.0,0.0,-1.0]},{"name":"Плита T.O. (2)","children":[91,99],"rotation":[0.0,0.0,0.0,-1.0]},{"name":"Уровень [5877]","children":[92],"rotation":[-0.5,0.5,-0.5,-0.5],"scale":[100.0,100.0,100.0],"translation":[-50.81696319580078,-13.123359680175782,41.35826873779297]},{"children":[93,96,97,98],"rotation":[0.0,0.0,0.0,-1.0]},{"children":[95],"rotation":[0.0,0.0,0.0,-1.0]},{"mesh":14},{"children":[94]},{"rotation":[0.0,0.0,0.0,-1.0]},{"rotation":[0.0,0.0,0.0,-1.0]},{"rotation":[0.0,0.0,0.0,-1.0]},{"name":"Уровень [5877]","children":[100],"rotation":[0.0,0.0,0.0,-1.0]},{"rotation":[0.0,0.0,0.0,-1.0]},{"name":"Уровень 1 (2)","children":[102,110],"rotation":[0.0,0.0,0.0,-1.0]},{"name":"Уровень [355]","children":[103],"rotation":[-0.5,0.5,-0.5,-0.5],"scale":[100.0,100.0,100.0],"translation":[-50.81696319580078,0.0,41.35826873779297]},{"children":[104,107,108,109],"rotation":[0.0,0.0,0.0,-1.0]},{"children":[106],"rotation":[0.0,0.0,0.0,-1.0]},{"mesh":15},{"children":[105]},{"rotation":[0.0,0.0,0.0,-1.0]},{"rotation":[0.0,0.0,0.0,-1.0]},{"rotation":[0.0,0.0,0.0,-1.0]},{"name":"Уровень [355]","children":[111],"rotation":[0.0,0.0,0.0,-1.0]},{"rotation":[0.0,0.0,0.0,-1.0]},{"name":"Уровень 2 (2)","children":[113,121],"rotation":[0.0,0.0,0.0,-1.0]},{"name":"Уровень [2607]","children":[114],"rotation":[-0.5,0.5,-0.5,-0.5],"scale":[100.0,100.0,100.0],"translation":[-50.81696319580078,13.123359680175782,41.35826873779297]},{"children":[115,118,119,120],"rotation":[0.0,0.0,0.0,-1.0]},{"children":[117],"rotation":[0.0,0.0,0.0,-1.0]},{"mesh":16},{"children":[116]},{"rotation":[0.0,0.0,0.0,-1.0]},{"rotation":[0.0,0.0,0.0,-1.0]},{"rotation":[0.0,0.0,0.0,-1.0]},{"name":"Уровень [2607]","children":[122],"rotation":[0.0,0.0,0.0,-1.0]},{"rotation":[0.0,0.0,0.0,-1.0]},{"name":"Фунд. стена T.O. (2)","children":[124,132],"rotation":[0.0,0.0,0.0,-1.0]},{"name":"Уровень [5855]","children":[125],"rotation":[-0.5,0.5,-0.5,-0.5],"scale":[100.0,100.0,100.0],"translation":[-50.81696319580078,-0.9842519760131836,41.35826873779297]},{"children":[126,129,130,131],"rotation":[0.0,0.0,0.0,-1.0]},{"children":[128],"rotation":[0.0,0.0,0.0,-1.0]},{"mesh":17},{"children":[127]},{"rotation":[0.0,0.0,0.0,-1.0]},{"rotation":[0.0,0.0,0.0,-1.0]},{"rotation":[0.0,0.0,0.0,-1.0]},{"name":"Уровень [5855]","children":[133],"rotation":[0.0,0.0,0.0,-1.0]},{"rotation":[0.0,0.0,0.0,-1.0]}],"samplers":[{"wrapS":10497,"wrapT":10497}],"scene":0,"scenes":[{"nodes":[0]}]}